<svg width="500" height="500" viewBox="0 0 500 500" fill="none" xmlns="http://www.w3.org/2000/svg">
    <g clip-path="url(#clip0)">
        <circle cx="250" cy="250" r="250" fill="#EEDBB6" />
        <g filter="url(#filter0_d)">
            <rect x="43" y="177" width="281" height="93" rx="18" fill="#048F04" />
            <path d="M29.2216 178.606C28.7207 177.947 29.1902 177 30.0174 177H63V223L29.2216 178.606Z" fill="#048F04" />
            <path d="M47.9237 195.592L43.1684 202.277C43.1684 202.277 42.7718 198.066 42.5 197C42.2282 195.934 40.288 192.592 40.288 192.592L47.9237 195.592Z" fill="#048F04" />
        </g>
        <g filter="url(#filter1_d)">
            <rect x="176" y="250" width="281" height="93" rx="18" fill="#0084FF" />
            <path d="M471.778 251.606C472.279 250.947 471.81 250 470.983 250H438V296L471.778 251.606Z" fill="#0084FF" />
            <path d="M452.364 269.567L456.701 277.228C456.701 277.228 457.318 272.215 457.643 270.938C457.969 269.66 460.063 265.592 460.063 265.592L452.364 269.567Z" fill="#0084FF" />
        </g>
        <g filter="url(#filter2_d)">
            <path d="M233.373 294.918L249.109 310.951C234.066 328.171 215.46 336.781 193.291 336.781C171.32 336.781 153.01 329.755 138.363 315.701C123.913 301.449 116.689 283.536 116.689 261.961C116.689 240.188 124.111 222.175 138.957 207.924C153.802 193.474 172.507 186.249 195.072 186.249C217.241 186.249 235.946 194.563 251.188 211.19L235.748 228.113C228.821 221.384 222.289 216.732 216.153 214.159C210.017 211.586 202.792 210.299 194.478 210.299C179.633 210.299 167.163 215.049 157.068 224.551C147.171 234.052 142.223 246.126 142.223 260.773C142.223 275.223 147.171 287.495 157.068 297.59C166.965 307.685 178.742 312.732 192.4 312.732C200.713 312.732 207.839 311.346 213.777 308.575C219.913 305.804 226.445 301.252 233.373 294.918ZM299.082 335H275.924V180.905H299.082V244.443C302.447 237.713 307.495 232.468 314.225 228.707C320.955 224.748 328.179 222.769 335.899 222.769C348.765 222.769 358.959 226.629 366.48 234.348C374.002 242.068 377.763 253.054 377.763 267.305V335H354.307V274.431C354.307 254.043 345.895 243.849 329.07 243.849C320.559 243.849 313.433 246.621 307.693 252.163C301.953 257.507 299.082 265.128 299.082 275.025V335Z" fill="white" />
            <path d="M233.373 294.918L234.087 294.217L233.411 293.528L232.698 294.179L233.373 294.918ZM249.109 310.951L249.862 311.608L250.472 310.911L249.823 310.25L249.109 310.951ZM138.363 315.701L137.661 316.413L137.671 316.423L138.363 315.701ZM138.957 207.924L139.649 208.645L139.654 208.64L138.957 207.924ZM251.188 211.19L251.926 211.864L252.543 211.188L251.925 210.514L251.188 211.19ZM235.748 228.113L235.052 228.831L235.792 229.55L236.487 228.787L235.748 228.113ZM157.068 224.551L156.383 223.822L156.376 223.829L157.068 224.551ZM157.068 297.59L157.782 296.89L157.068 297.59ZM213.777 308.575L213.366 307.664L213.354 307.669L213.777 308.575ZM232.66 295.618L248.396 311.651L249.823 310.25L234.087 294.217L232.66 295.618ZM248.356 310.293C233.496 327.304 215.161 335.781 193.291 335.781V337.781C215.759 337.781 234.636 329.039 249.862 311.608L248.356 310.293ZM193.291 335.781C171.554 335.781 153.5 328.839 139.055 314.979L137.671 316.423C152.52 330.67 171.085 337.781 193.291 337.781V335.781ZM139.065 314.989C124.819 300.938 117.689 283.287 117.689 261.961H115.689C115.689 283.785 123.008 301.961 137.661 316.413L139.065 314.989ZM117.689 261.961C117.689 240.442 125.013 222.696 139.649 208.645L138.264 207.202C123.21 221.654 115.689 239.933 115.689 261.961H117.689ZM139.654 208.64C154.295 194.39 172.742 187.249 195.072 187.249V185.249C172.272 185.249 153.309 192.559 138.259 207.207L139.654 208.64ZM195.072 187.249C216.955 187.249 235.395 195.441 250.45 211.865L251.925 210.514C236.498 193.685 217.527 185.249 195.072 185.249V187.249ZM250.449 210.516L235.01 227.439L236.487 228.787L251.926 211.864L250.449 210.516ZM236.445 227.396C229.465 220.615 222.83 215.875 216.539 213.237L215.766 215.081C221.747 217.589 228.176 222.152 235.052 228.831L236.445 227.396ZM216.539 213.237C210.254 210.601 202.893 209.299 194.478 209.299V211.299C202.691 211.299 209.779 212.57 215.766 215.081L216.539 213.237ZM194.478 209.299C179.398 209.299 166.677 214.134 156.383 223.822L157.753 225.279C167.649 215.965 179.868 211.299 194.478 211.299V209.299ZM156.376 223.829C146.268 233.532 141.223 245.874 141.223 260.773H143.223C143.223 246.378 148.074 234.571 157.761 225.272L156.376 223.829ZM141.223 260.773C141.223 275.478 146.269 288.003 156.354 298.29L157.782 296.89C148.073 286.986 143.223 274.967 143.223 260.773H141.223ZM156.354 298.29C166.432 308.569 178.463 313.732 192.4 313.732V311.732C179.021 311.732 167.498 306.8 157.782 296.89L156.354 298.29ZM192.4 313.732C200.822 313.732 208.099 312.329 214.2 309.481L213.354 307.669C207.579 310.364 200.605 311.732 192.4 311.732V313.732ZM214.189 309.487C220.451 306.659 227.07 302.035 234.048 295.656L232.698 294.179C225.82 300.468 219.376 304.95 213.366 307.664L214.189 309.487ZM299.082 335V336H300.082V335H299.082ZM275.924 335H274.924V336H275.924V335ZM275.924 180.905V179.905H274.924V180.905H275.924ZM299.082 180.905H300.082V179.905H299.082V180.905ZM299.082 244.443H298.082L299.977 244.891L299.082 244.443ZM314.225 228.707L314.713 229.58L314.722 229.575L314.732 229.569L314.225 228.707ZM366.48 234.348L365.764 235.046L366.48 234.348ZM377.763 335V336H378.763V335H377.763ZM354.307 335H353.307V336H354.307V335ZM307.693 252.163L308.374 252.895L308.381 252.889L308.387 252.882L307.693 252.163ZM299.082 334H275.924V336H299.082V334ZM276.924 335V180.905H274.924V335H276.924ZM275.924 181.905H299.082V179.905H275.924V181.905ZM298.082 180.905V244.443H300.082V180.905H298.082ZM299.977 244.891C303.25 238.345 308.153 233.246 314.713 229.58L313.737 227.834C306.836 231.69 301.645 237.082 298.188 243.996L299.977 244.891ZM314.732 229.569C321.31 225.7 328.36 223.769 335.899 223.769V221.769C327.999 221.769 320.599 223.797 313.718 227.845L314.732 229.569ZM335.899 223.769C348.551 223.769 358.467 227.557 365.764 235.046L367.197 233.651C359.451 225.701 348.978 221.769 335.899 221.769V223.769ZM365.764 235.046C373.051 242.525 376.763 253.228 376.763 267.305H378.763C378.763 252.88 374.953 241.611 367.197 233.651L365.764 235.046ZM376.763 267.305V335H378.763V267.305H376.763ZM377.763 334H354.307V336H377.763V334ZM355.307 335V274.431H353.307V335H355.307ZM355.307 274.431C355.307 264.125 353.185 256.209 348.769 250.858C344.323 245.471 337.693 242.849 329.07 242.849V244.849C337.272 244.849 343.26 247.325 347.227 252.131C351.223 256.974 353.307 264.35 353.307 274.431H355.307ZM329.07 242.849C320.319 242.849 312.938 245.708 306.998 251.443L308.387 252.882C313.928 247.533 320.799 244.849 329.07 244.849V242.849ZM307.011 251.431C301.018 257.011 298.082 264.928 298.082 275.025H300.082C300.082 265.328 302.888 258.003 308.374 252.895L307.011 251.431ZM298.082 275.025V335H300.082V275.025H298.082Z" fill="#DBDBDB" />
        </g>
    </g>
    <defs>
        <filter id="filter0_d" x="29.0156" y="177" width="302.984" height="101" filterUnits="userSpaceOnUse" color-interpolation-filters="sRGB">
            <feFlood flood-opacity="0" result="BackgroundImageFix" />
            <feColorMatrix in="SourceAlpha" type="matrix" values="0 0 0 0 0 0 0 0 0 0 0 0 0 0 0 0 0 0 127 0" />
            <feOffset dx="4" dy="4" />
            <feGaussianBlur stdDeviation="2" />
            <feColorMatrix type="matrix" values="0 0 0 0 0 0 0 0 0 0 0 0 0 0 0 0 0 0 0.35 0" />
            <feBlend mode="normal" in2="BackgroundImageFix" result="effect1_dropShadow" />
            <feBlend mode="normal" in="SourceGraphic" in2="effect1_dropShadow" result="shape" />
        </filter>
        <filter id="filter1_d" x="176" y="250" width="303.984" height="101" filterUnits="userSpaceOnUse" color-interpolation-filters="sRGB">
            <feFlood flood-opacity="0" result="BackgroundImageFix" />
            <feColorMatrix in="SourceAlpha" type="matrix" values="0 0 0 0 0 0 0 0 0 0 0 0 0 0 0 0 0 0 127 0" />
            <feOffset dx="4" dy="4" />
            <feGaussianBlur stdDeviation="2" />
            <feColorMatrix type="matrix" values="0 0 0 0 0 0 0 0 0 0 0 0 0 0 0 0 0 0 0.35 0" />
            <feBlend mode="normal" in2="BackgroundImageFix" result="effect1_dropShadow" />
            <feBlend mode="normal" in="SourceGraphic" in2="effect1_dropShadow" result="shape" />
        </filter>
        <filter id="filter2_d" x="115.689" y="179.905" width="271.074" height="165.876" filterUnits="userSpaceOnUse" color-interpolation-filters="sRGB">
            <feFlood flood-opacity="0" result="BackgroundImageFix" />
            <feColorMatrix in="SourceAlpha" type="matrix" values="0 0 0 0 0 0 0 0 0 0 0 0 0 0 0 0 0 0 127 0" />
            <feOffset dx="5" dy="5" />
            <feGaussianBlur stdDeviation="1.5" />
            <feColorMatrix type="matrix" values="0 0 0 0 0 0 0 0 0 0 0 0 0 0 0 0 0 0 0.25 0" />
            <feBlend mode="normal" in2="BackgroundImageFix" result="effect1_dropShadow" />
            <feBlend mode="normal" in="SourceGraphic" in2="effect1_dropShadow" result="shape" />
        </filter>
        <clipPath id="clip0">
            <rect width="500" height="500" fill="white" />
        </clipPath>
    </defs>
</svg>
